PathFileType	4	(X/Y/Z)	 s09c0203.trc
DataRate	CameraRate	NumFrames	NumMarkers	Units	OrigDataRate	OrigDataStartFrame	OrigNumFrames
200	200	4	50	mm	200	251	2000
Frame#	Time	racr			lacr			c7			jug			rlel			rdr			llel			ldr			s2			lic			ric			lasi			rasi			rpsi			lpsi			rgt			lgt			rth1			rth2			rth3			rth4			rlfc			rmfc			rsh1			rsh2			rsh3			rsh4			rlmal			rmmal			rcal			rtoe			rmt5			lth1			lth2			lth4			lth3			llfc			lmfc			llmal			lmmal			lcal			lmt5			lsh1			lsh2			lsh3			lsh4			ltoe			SBIKE			LBIKE			RBIKE			
		X1	Y1	Z1	X2	Y2	Z2	X3	Y3	Z3	X4	Y4	Z4	X5	Y5	Z5	X6	Y6	Z6	X7	Y7	Z7	X8	Y8	Z8	X9	Y9	Z9	X10	Y10	Z10	X11	Y11	Z11	X12	Y12	Z12	X13	Y13	Z13	X14	Y14	Z14	X15	Y15	Z15	X16	Y16	Z16	X17	Y17	Z17	X18	Y18	Z18	X19	Y19	Z19	X20	Y20	Z20	X21	Y21	Z21	X22	Y22	Z22	X23	Y23	Z23	X24	Y24	Z24	X25	Y25	Z25	X26	Y26	Z26	X27	Y27	Z27	X28	Y28	Z28	X29	Y29	Z29	X30	Y30	Z30	X31	Y31	Z31	X32	Y32	Z32	X33	Y33	Z33	X34	Y34	Z34	X35	Y35	Z35	X36	Y36	Z36	X37	Y37	Z37	X38	Y38	Z38	X39	Y39	Z39	X40	Y40	Z40	X41	Y41	Z41	X42	Y42	Z42	X43	Y43	Z43	X44	Y44	Z44	X45	Y45	Z45	X46	Y46	Z46	X47	Y47	Z47	X48	Y48	Z48	X49	Y49	Z49	X50	Y50	Z50	
251	1.2550	505.157901	1297.585719	-94.984733	510.131886	1286.342311	-408.402431	455.810061	1310.465903	-222.373370	477.256917	1179.675574	-249.490339	501.093075	1062.963116	24.727465	687.947594	911.914906	-46.486083	455.553469	1028.969232	-524.501649	671.712234	910.602716	-459.138145	1.848104	1119.797058	-235.373426	140.227054	1121.181069	-381.828184	162.669818	1112.074020	-89.325157	186.100252	1067.035275	-364.812173	202.268673	1055.442665	-112.935240	43.199558	1148.287330	-171.295858	34.370612	1159.953432	-279.570925	128.614055	972.520746	-44.544170	99.720741	1012.113348	-431.063391	212.157296	861.612068	-46.252180	279.639721	806.308941	-53.842021	306.648445	721.999569	-60.433532	304.924471	823.320787	-75.445283	339.629719	621.852534	-90.171718	322.545023	608.553905	-187.451220	255.472722	556.890819	-63.634856	215.165090	477.825226	-78.167413	140.849813	431.310926	-80.184101	235.943476	464.198247	-109.644460	70.681542	357.670465	-84.157759	79.460603	369.285174	-162.964690	-14.361779	355.013836	-123.826457	226.285716	245.059920	-123.294357	142.398979	262.171052	-60.047423	219.524740	947.122712	-436.396785	304.780830	942.605941	-434.257603	317.437702	975.011392	-417.765686	380.176517	892.797824	-438.255744	469.029284	832.344527	-424.564308	494.089593	825.833603	-325.823232	373.968760	489.768399	-408.117340	389.477800	494.452237	-337.160137	298.723017	466.579719	-367.689438	453.347918	384.362015	-433.245305	445.803193	734.365700	-440.685044	445.360797	648.057008	-426.702476	399.332998	572.172925	-419.271918	471.472803	645.441540	-397.476716	545.452297	383.829900	-367.742643	-64.984450	851.629908	-238.701591	20.997315	85.005072	-442.164905	21.168257	84.181434	-43.740829	
252	1.2600	505.158682	1297.564963	-95.029793	510.161736	1286.348588	-408.369755	455.819007	1310.450425	-222.332769	477.291080	1179.664535	-249.451194	501.076593	1062.955696	24.747702	687.940238	911.917759	-46.498947	455.592666	1028.993225	-524.531053	671.744520	910.576530	-459.211997	1.847243	1119.807577	-235.371579	140.248309	1121.180450	-381.815898	162.690603	1112.069450	-89.343300	186.110934	1067.028768	-364.816462	202.249461	1055.416899	-112.987899	43.202586	1148.303795	-171.292472	34.371578	1159.957419	-279.573387	128.614546	972.526505	-44.563985	99.715285	1012.145828	-431.090167	212.126499	861.601034	-46.288494	279.636032	806.303454	-53.859355	306.641408	722.002091	-60.464401	304.921136	823.308362	-75.500262	339.607590	621.842926	-90.214932	322.552384	608.554396	-187.452027	255.477253	556.893734	-63.639680	215.207396	477.843751	-78.166690	140.836749	431.287051	-80.192257	235.976574	464.209564	-109.644707	70.678770	357.646017	-84.168793	79.413135	369.283728	-162.974798	-14.354762	354.990145	-123.834027	226.267738	245.022489	-123.314811	142.404814	262.127758	-60.074538	219.508503	947.125043	-436.417788	304.769120	942.618478	-434.258138	317.434519	975.015726	-417.761474	380.173715	892.813430	-438.281667	469.020168	832.390454	-424.572040	494.090855	825.850814	-325.902337	373.944654	489.800675	-408.141214	389.462693	494.450517	-337.197959	298.694792	466.614210	-367.684062	453.331913	384.375681	-433.238471	445.792499	734.395072	-440.683801	445.364378	648.131430	-426.867117	399.317361	572.200421	-419.284328	471.546087	645.120190	-397.072279	545.453042	383.852142	-367.745329	-64.984192	851.633894	-238.700874	20.993253	85.003952	-442.177229	21.130825	84.159205	-43.755558	
253	1.2650	505.146251	1297.544443	-95.076465	510.193322	1286.359720	-408.362501	455.825882	1310.450520	-222.346441	477.310618	1179.668677	-249.474348	501.075528	1062.956447	24.747050	687.942836	911.928805	-46.499467	455.630152	1029.014567	-524.556547	671.750323	910.570759	-459.271213	1.851117	1119.814191	-235.376095	140.256246	1121.180895	-381.826406	162.679204	1112.071783	-89.375867	186.110857	1067.014817	-364.814601	202.227904	1055.411525	-113.052972	43.230488	1148.323144	-171.301479	34.377182	1159.959354	-279.567863	128.605866	972.530843	-44.587527	99.715468	1012.160984	-431.088378	212.137474	861.603043	-46.317720	279.605764	806.304359	-53.895634	306.635648	722.012803	-60.498092	304.865584	823.310705	-75.531510	339.577213	621.848357	-90.259217	322.556982	608.547542	-187.450942	255.462780	556.918234	-63.670173	215.198047	477.831496	-78.157949	140.792304	431.280985	-80.231746	235.976433	464.191800	-109.669370	70.684546	357.599213	-84.195610	79.375212	369.245610	-163.007444	-14.347694	354.974956	-123.860030	226.248830	244.958880	-123.366854	142.386601	262.078741	-60.106722	219.508034	947.156806	-436.418340	304.777969	942.630574	-434.259386	317.434870	975.032991	-417.757096	380.173928	892.833974	-438.292151	469.031914	832.407366	-424.589586	494.052613	825.841045	-325.989289	373.916050	489.836011	-408.144425	389.437452	494.463409	-337.251866	298.675628	466.636582	-367.714843	453.326806	384.410610	-433.238625	445.775769	734.407351	-440.690587	445.363056	648.150236	-426.880939	399.305859	572.213673	-419.285587	471.530344	645.153585	-397.099338	545.443982	383.875124	-367.739442	-64.984579	851.636004	-238.708687	20.979133	85.020923	-442.196691	21.122478	84.168675	-43.770854	
254	1.2700	505.150246	1297.540105	-95.118192	510.224502	1286.370637	-408.348355	455.829851	1310.415275	-222.341336	477.331524	1179.642236	-249.498254	501.055911	1062.940083	24.768400	687.937958	911.931669	-46.520860	455.675993	1029.050088	-524.585905	671.763941	910.558591	-459.339939	1.833861	1119.829741	-235.374503	140.257936	1121.188505	-381.828279	162.681010	1112.074174	-89.414317	186.121208	1067.019174	-364.832452	202.197626	1055.420995	-113.086376	43.232008	1148.331406	-171.299794	34.406598	1159.995829	-279.580095	128.604491	972.555986	-44.626389	99.719093	1012.179516	-431.098019	212.114432	861.622438	-46.350916	279.615145	806.315268	-53.928019	306.616865	722.004160	-60.533433	304.870833	823.309672	-75.562695	339.531133	621.842300	-90.310448	322.557078	608.539916	-187.469960	255.450666	556.868971	-63.713367	215.227242	477.832990	-78.173044	140.802207	431.265148	-80.253416	235.996439	464.185468	-109.669720	70.697490	357.589826	-84.225569	79.357067	369.251886	-163.011013	-14.329289	354.948217	-123.877035	226.243612	244.904690	-123.380403	142.391810	262.032542	-60.134322	219.506716	947.147106	-436.416439	304.764976	942.654480	-434.288299	317.420331	975.052646	-417.800268	380.185816	892.849561	-438.295145	469.019303	832.421632	-424.622638	494.056995	825.824264	-326.075031	373.883688	489.860450	-408.161266	389.396718	494.496897	-337.274577	298.640948	466.695697	-367.674372	453.315201	384.449166	-433.231373	445.769145	734.418411	-440.710375	445.348285	648.165082	-426.915339	399.295602	572.228406	-419.303863	471.527534	645.163130	-397.115776	545.415532	383.915407	-367.751185	-64.976806	851.629345	-238.702333	20.977262	85.007823	-442.210254	21.109176	84.172736	-43.793110	
